<svg width="37" height="30" viewBox="0 0 37 30" fill="none" xmlns="http://www.w3.org/2000/svg">
<g id="smile">
<path id="Path" d="M8.928 11.8712C11.0968 11.8712 12.8608 9.21359 12.8608 5.94679C12.8608 2.68079 11.0968 0.0231934 8.928 0.0231934C6.7592 0.0231934 4.9948 2.68079 4.9948 5.94679C4.9948 9.21359 6.7596 11.8712 8.928 11.8712Z" fill="white"/>
<path id="Path_2" d="M27.6424 11.8712C29.8112 11.8712 31.5756 9.21359 31.5756 5.94679C31.5756 2.68079 29.8112 0.0231934 27.6424 0.0231934C25.474 0.0231934 23.71 2.68079 23.71 5.94679C23.71 9.21359 25.4744 11.8712 27.6424 11.8712Z" fill="white"/>
<path id="Path_3" d="M35.7178 16.6119C35.4686 16.3987 35.1252 16.3743 34.8617 16.5558C30.6311 19.4465 24.8916 21.457 18.6998 22.2173C12.5094 22.9773 6.4537 22.4151 1.6491 20.6342C1.34929 20.5231 1.02107 20.6287 0.832339 20.8957C0.642562 21.1632 0.633221 21.5351 0.808865 21.8215C3.41478 26.076 11.0299 28.3352 19.3263 27.3165C27.6259 26.2974 34.4685 22.2619 35.9656 17.5039C36.0661 17.1841 35.9662 16.8252 35.7178 16.6119Z" fill="white"/>
</g>
</svg>
